<svg width="20" height="20" viewBox="0 0 20 20" fill="none" xmlns="http://www.w3.org/2000/svg">
<path d="M17.25 13.7422C16.7891 12.9453 16.2344 11.4297 16.2344 8.75V8.19531C16.2344 4.73438 13.461 1.89844 10.0469 1.875H10C9.18028 1.87603 8.36878 2.0385 7.61183 2.35315C6.85489 2.66779 6.16733 3.12845 5.58841 3.70882C5.0095 4.28918 4.55056 4.97789 4.23781 5.73562C3.92506 6.49335 3.76462 7.30526 3.76564 8.125V8.75C3.76564 11.4297 3.21096 12.9453 2.75002 13.7422C2.63854 13.9321 2.57921 14.1481 2.57802 14.3683C2.57683 14.5885 2.63383 14.8051 2.74325 14.9961C2.85267 15.1872 3.01063 15.346 3.20114 15.4565C3.39165 15.5669 3.60795 15.625 3.82814 15.625H6.87502C6.87502 16.4538 7.20426 17.2487 7.79031 17.8347C8.37636 18.4208 9.17122 18.75 10 18.75C10.8288 18.75 11.6237 18.4208 12.2097 17.8347C12.7958 17.2487 13.125 16.4538 13.125 15.625H16.1719C16.3921 15.6264 16.6086 15.5693 16.7994 15.4594C16.9903 15.3496 17.1484 15.1911 17.2578 15C17.3663 14.8079 17.4226 14.5907 17.4212 14.3701C17.4199 14.1494 17.3608 13.933 17.25 13.7422ZM10 17.5C9.50337 17.4979 9.02765 17.2997 8.67647 16.9486C8.32528 16.5974 8.12708 16.1216 8.12502 15.625H11.875C11.873 16.1216 11.6748 16.5974 11.3236 16.9486C10.9724 17.2997 10.4967 17.4979 10 17.5Z" fill="#58667E"/>
</svg>
