<svg width="18" height="18" viewBox="0 0 18 18" fill="none" xmlns="http://www.w3.org/2000/svg">
<path d="M9 9L4.725 5.79375C4.65554 5.74098 4.59913 5.67296 4.56012 5.59494C4.52111 5.51692 4.50054 5.43098 4.5 5.34375V2.8125C4.5 2.66332 4.55926 2.52024 4.66475 2.41475C4.77024 2.30926 4.91332 2.25 5.0625 2.25H12.9375C13.0867 2.25 13.2298 2.30926 13.3352 2.41475C13.4407 2.52024 13.5 2.66332 13.5 2.8125V5.31562C13.4995 5.40285 13.4789 5.4888 13.4399 5.56682C13.4009 5.64484 13.3445 5.71286 13.275 5.76562L9 9Z" stroke="#58667E" stroke-width="2" stroke-linecap="round" stroke-linejoin="round"/>
<path d="M9 9L4.725 12.2063C4.65554 12.259 4.59913 12.327 4.56012 12.4051C4.52111 12.4831 4.50054 12.569 4.5 12.6562V15.1875C4.5 15.3367 4.55926 15.4798 4.66475 15.5852C4.77024 15.6907 4.91332 15.75 5.0625 15.75H12.9375C13.0867 15.75 13.2298 15.6907 13.3352 15.5852C13.4407 15.4798 13.5 15.3367 13.5 15.1875V12.6844C13.4995 12.5971 13.4789 12.5112 13.4399 12.4332C13.4009 12.3552 13.3445 12.2871 13.275 12.2344L9 9Z" stroke="#58667E" stroke-width="2" stroke-linecap="round" stroke-linejoin="round"/>
<path d="M5.25232 6.1875H12.7195" stroke="#58667E" stroke-width="2" stroke-linecap="round" stroke-linejoin="round"/>
<path d="M9 11.8125V9" stroke="#58667E" stroke-width="2" stroke-linecap="round" stroke-linejoin="round"/>
</svg>
