<svg width="18" height="18" viewBox="0 0 18 18" fill="none" xmlns="http://www.w3.org/2000/svg">
<path d="M16.0312 14.0625H15.4688V2.8125C15.4688 2.66332 15.4095 2.52024 15.304 2.41475C15.1985 2.30926 15.0554 2.25 14.9062 2.25H10.9688C10.8196 2.25 10.6765 2.30926 10.571 2.41475C10.4655 2.52024 10.4062 2.66332 10.4062 2.8125V5.625H7.03125C6.88207 5.625 6.73899 5.68426 6.6335 5.78975C6.52801 5.89524 6.46875 6.03832 6.46875 6.1875V9H3.09375C2.94457 9 2.80149 9.05926 2.696 9.16475C2.59051 9.27024 2.53125 9.41332 2.53125 9.5625V14.0625H1.96875C1.81957 14.0625 1.67649 14.1218 1.571 14.2273C1.46551 14.3327 1.40625 14.4758 1.40625 14.625C1.40625 14.7742 1.46551 14.9173 1.571 15.0227C1.67649 15.1282 1.81957 15.1875 1.96875 15.1875H16.0312C16.1804 15.1875 16.3235 15.1282 16.429 15.0227C16.5345 14.9173 16.5938 14.7742 16.5938 14.625C16.5938 14.4758 16.5345 14.3327 16.429 14.2273C16.3235 14.1218 16.1804 14.0625 16.0312 14.0625ZM7.59375 6.75H10.4062V14.0625H7.59375V6.75ZM3.65625 10.125H6.46875V14.0625H3.65625V10.125Z" fill="#58667E"/>
</svg>
