<svg width="18" height="18" viewBox="0 0 18 18" fill="none" xmlns="http://www.w3.org/2000/svg">
<path d="M14.5991 3.84932L14.2358 2.91764L14.2261 2.9214L14.2166 2.92535C13.3064 3.30212 12.3634 3.68677 11.4071 4.07683C8.43521 5.28904 5.33508 6.55355 2.69389 7.79635C2.29666 7.94599 1.94252 8.13443 1.68166 8.39598C1.37659 8.70189 1.19307 9.12287 1.2655 9.58969C1.32685 9.98518 1.54987 10.2498 1.6695 10.3721C1.73817 10.4423 1.80302 10.4961 1.8517 10.5334C1.87661 10.5524 1.89879 10.5683 1.91711 10.5809C1.92631 10.5872 1.93465 10.5927 1.94201 10.5976L1.95233 10.6042L1.95693 10.6072L1.95909 10.6085L1.96014 10.6092C1.96065 10.6095 1.96116 10.6098 2.49217 9.76248L1.96116 10.6098L2.07217 10.6794L2.19737 10.718L4.45225 11.4137L4.45224 11.4137L4.459 11.4158C5.13029 11.6177 5.68791 11.6178 6.11032 11.5427C6.31876 11.5056 6.48789 11.4514 6.61584 11.3994C6.67973 11.3735 6.73324 11.3482 6.77623 11.326C6.79773 11.3148 6.81662 11.3045 6.83287 11.2952L6.85529 11.2821L6.86503 11.2762L6.86953 11.2734L6.87169 11.272L6.87275 11.2714C6.87327 11.2711 6.87379 11.2707 6.34278 10.4234L6.87379 11.2707L6.88975 11.2607L6.90532 11.2501L7.16685 11.0722C7.1304 11.2475 7.1243 11.432 7.15469 11.6236C7.23825 12.1502 7.56834 12.5008 7.76693 12.6727C8.25875 13.1057 9.14418 13.7221 9.87281 14.2134C10.2486 14.4668 10.6006 14.6988 10.8656 14.8729C10.9126 14.9037 10.9565 14.9325 10.9972 14.9592C11.0724 15.0085 11.1366 15.0507 11.1894 15.0855C11.2337 15.1147 11.2619 15.1335 11.2781 15.1444C11.2876 15.1507 11.2931 15.1543 11.2953 15.1558C11.4558 15.2796 11.7841 15.4973 12.1669 15.6767C12.5248 15.8445 13.1832 16.1035 13.8452 15.956L13.8452 15.956C14.5979 15.7883 14.9659 15.2215 15.1245 14.86C15.2071 14.6718 15.2534 14.4981 15.2795 14.3742C15.2928 14.3107 15.3017 14.2564 15.3076 14.2148C15.3099 14.1982 15.3118 14.1834 15.3133 14.1706L16.1427 8.73056L16.1442 8.72052L16.1455 8.71044C16.2651 7.80249 16.4021 6.92678 16.5149 6.20895C16.5213 6.16811 16.5277 6.12753 16.534 6.08726C16.6329 5.45878 16.7196 4.90769 16.7407 4.62439C16.7789 4.17449 16.7049 3.68324 16.3712 3.29013C16.0373 2.89696 15.5975 2.78361 15.2973 2.75744C14.9989 2.73142 14.7297 2.77918 14.5635 2.81831C14.4743 2.8393 14.3991 2.86162 14.3441 2.87945C14.3164 2.88845 14.293 2.89653 14.2749 2.90306L14.2514 2.91168L14.2426 2.91502L14.2389 2.91642L14.2373 2.91705L14.2365 2.91735C14.2361 2.9175 14.2358 2.91764 14.5991 3.84932Z" stroke="#58667E" stroke-width="2"/>
</svg>
