<svg width="16" height="16" viewBox="0 0 16 16" fill="none" xmlns="http://www.w3.org/2000/svg">
<path d="M7.64375 4.4625L8.88125 3.225C9.4052 2.74745 10.093 2.49014 10.8017 2.50655C11.5105 2.52296 12.1856 2.81182 12.6869 3.3131C13.1882 3.81438 13.477 4.48954 13.4934 5.19827C13.5099 5.907 13.2525 6.5948 12.775 7.11875L11.0063 8.88125C10.7513 9.13712 10.4484 9.34014 10.1149 9.47867C9.7813 9.61719 9.42368 9.6885 9.0625 9.6885C8.70132 9.6885 8.3437 9.61719 8.01014 9.47867C7.67659 9.34014 7.37366 9.13712 7.11875 8.88125" stroke="#58667E" stroke-width="1.5" stroke-linecap="round" stroke-linejoin="round"/>
<path d="M8.35625 11.5375L7.11875 12.775C6.5948 13.2525 5.907 13.5099 5.19827 13.4934C4.48954 13.477 3.81438 13.1882 3.3131 12.6869C2.81182 12.1856 2.52296 11.5105 2.50655 10.8017C2.49014 10.093 2.74745 9.4052 3.225 8.88125L4.99375 7.11875C5.24866 6.86288 5.55158 6.65986 5.88514 6.52133C6.21869 6.3828 6.57632 6.31149 6.9375 6.31149C7.29867 6.31149 7.6563 6.3828 7.98985 6.52133C8.32341 6.65986 8.62633 6.86288 8.88125 7.11875" stroke="#58667E" stroke-width="1.5" stroke-linecap="round" stroke-linejoin="round"/>
</svg>
