<svg width="18" height="18" viewBox="0 0 18 18" fill="none" xmlns="http://www.w3.org/2000/svg">
<path d="M12.9375 6.3V5.90625C12.9375 4.14141 10.2797 2.8125 6.75 2.8125C3.22031 2.8125 0.5625 4.14141 0.5625 5.90625V8.71875C0.5625 10.1883 2.40469 11.3555 5.0625 11.707V12.0938C5.0625 13.8586 7.72031 15.1875 11.25 15.1875C14.7797 15.1875 17.4375 13.8586 17.4375 12.0938V9.28125C17.4375 7.82578 15.6516 6.65859 12.9375 6.3ZM5.0625 10.5609V8.89453C5.6221 8.96645 6.1858 9.00168 6.75 9C7.3142 9.00168 7.8779 8.96645 8.4375 8.89453V10.5609C7.87926 10.6479 7.31497 10.6902 6.75 10.6875C6.18503 10.6902 5.62074 10.6479 5.0625 10.5609ZM11.8125 7.72734V8.71875C11.8125 9.30937 10.9406 9.94219 9.5625 10.3289V8.68359C10.4695 8.46562 11.2359 8.13516 11.8125 7.72734ZM1.6875 8.71875V7.72734C2.26406 8.13516 3.03047 8.46562 3.9375 8.68359V10.3289C2.55937 9.94219 1.6875 9.30937 1.6875 8.71875ZM6.1875 12.0938V11.7984L6.75 11.8125C7.02656 11.8125 7.29375 11.8055 7.55156 11.7914C7.83281 11.8898 8.12813 11.9742 8.4375 12.0516V13.7039C7.05937 13.3172 6.1875 12.6844 6.1875 12.0938ZM9.5625 13.9359V12.2625C10.122 12.3359 10.6857 12.3735 11.25 12.375C11.8142 12.3767 12.3779 12.3414 12.9375 12.2695V13.9359C11.8188 14.1047 10.6812 14.1047 9.5625 13.9359ZM14.0625 13.7039V12.0586C14.9695 11.8406 15.7359 11.5102 16.3125 11.1023V12.0938C16.3125 12.6844 15.4406 13.3172 14.0625 13.7039Z" fill="#58667E"/>
</svg>
