<svg width="18" height="18" viewBox="0 0 18 18" fill="none" xmlns="http://www.w3.org/2000/svg">
<path d="M4.49999 9.84373C4.50094 9.91786 4.48703 9.99143 4.4591 10.0601C4.43116 10.1288 4.38977 10.1912 4.33734 10.2436C4.28492 10.296 4.22254 10.3374 4.15386 10.3653C4.08519 10.3933 4.01162 10.4072 3.93749 10.4062H0.843742C0.739243 10.4054 0.636939 10.3762 0.547769 10.3217C0.458599 10.2672 0.385916 10.1895 0.337492 10.0969C0.292462 10.0026 0.273909 9.89779 0.283817 9.79375C0.293725 9.68972 0.331721 9.59034 0.393742 9.50623C0.891545 8.838 1.55581 8.31193 2.3203 7.98045C1.9918 7.67974 1.7394 7.30532 1.58389 6.888C1.42837 6.47068 1.37418 6.02239 1.42578 5.58004C1.47737 5.13768 1.63328 4.7139 1.88067 4.34358C2.12806 3.97325 2.45986 3.66697 2.84875 3.44994C3.23765 3.23291 3.67252 3.11134 4.11759 3.09523C4.56265 3.07911 5.00518 3.16892 5.40875 3.35726C5.81232 3.54561 6.16539 3.82709 6.43891 4.17856C6.71243 4.53003 6.89858 4.94142 6.98202 5.37889C7.00283 5.49283 6.9884 5.6104 6.94066 5.71592C6.89292 5.82145 6.81414 5.90991 6.71484 5.96951C5.80543 6.50878 5.11379 7.3497 4.76015 8.34608C4.58582 8.82606 4.49775 9.33308 4.49999 9.84373ZM17.6062 9.50623C17.1084 8.838 16.4442 8.31193 15.6797 7.98045C16.0082 7.67974 16.2606 7.30532 16.4161 6.888C16.5716 6.47068 16.6258 6.02239 16.5742 5.58004C16.5226 5.13768 16.3667 4.7139 16.1193 4.34358C15.8719 3.97325 15.5401 3.66697 15.1512 3.44994C14.7623 3.23291 14.3275 3.11134 13.8824 3.09523C13.4373 3.07911 12.9948 3.16892 12.5912 3.35726C12.1877 3.54561 11.8346 3.82709 11.5611 4.17856C11.2876 4.53003 11.1014 4.94142 11.018 5.37889C10.9972 5.49283 11.0116 5.6104 11.0593 5.71592C11.1071 5.82145 11.1858 5.90991 11.2851 5.96951C12.1957 6.50739 12.8878 7.34881 13.2398 8.34608C13.4142 8.82606 13.5022 9.33308 13.5 9.84373C13.499 9.91786 13.513 9.99143 13.5409 10.0601C13.5688 10.1288 13.6102 10.1912 13.6626 10.2436C13.7151 10.296 13.7774 10.3374 13.8461 10.3653C13.9148 10.3933 13.9884 10.4072 14.0625 10.4062H17.1562C17.2607 10.4062 17.3631 10.3771 17.452 10.3222C17.5408 10.2673 17.6126 10.1887 17.6594 10.0953C17.7061 10.0019 17.7259 9.89726 17.7165 9.79322C17.7071 9.68918 17.6689 9.5898 17.6062 9.50623ZM11.0531 12.5226C11.6129 12.0936 12.0242 11.4999 12.2293 10.825C12.4343 10.1501 12.4227 9.42794 12.1962 8.75997C11.9696 8.092 11.5395 7.51179 10.9662 7.10087C10.3929 6.68995 9.70533 6.46896 8.99999 6.46896C8.29465 6.46896 7.60704 6.68995 7.03376 7.10087C6.46048 7.51179 6.03035 8.092 5.80381 8.75997C5.57727 9.42794 5.56569 10.1501 5.77072 10.825C5.97574 11.4999 6.38705 12.0936 6.94687 12.5226C5.85318 13.0082 4.9665 13.865 4.44374 14.9414C4.40215 15.0269 4.38352 15.1218 4.38968 15.2167C4.39585 15.3117 4.42659 15.4033 4.4789 15.4828C4.52758 15.5643 4.59659 15.6318 4.67916 15.6786C4.76174 15.7254 4.85506 15.75 4.94999 15.75H13.05C13.1449 15.75 13.2382 15.7254 13.3208 15.6786C13.4034 15.6318 13.4724 15.5643 13.5211 15.4828C13.5734 15.4033 13.6041 15.3117 13.6103 15.2167C13.6165 15.1218 13.5978 15.0269 13.5562 14.9414C13.0335 13.865 12.1468 13.0082 11.0531 12.5226Z" fill="#58667E"/>
</svg>
