<svg width="16" height="16" viewBox="0 0 16 16" fill="none" xmlns="http://www.w3.org/2000/svg">
<path d="M4.9873 6.23126H1.9873V3.23126" stroke="white" stroke-width="1.5" stroke-linecap="round" stroke-linejoin="round"/>
<path d="M11.8873 4.11253C11.3771 3.60154 10.7711 3.19615 10.104 2.91956C9.43697 2.64298 8.72193 2.50061 7.9998 2.50061C7.27768 2.50061 6.56264 2.64298 5.89559 2.91956C5.22853 3.19615 4.62255 3.60154 4.1123 4.11253L1.9873 6.23128" stroke="white" stroke-width="1.5" stroke-linecap="round" stroke-linejoin="round"/>
<path d="M11.0127 9.76874H14.0127V12.7687" stroke="white" stroke-width="1.5" stroke-linecap="round" stroke-linejoin="round"/>
<path d="M4.1123 11.8875C4.62255 12.3985 5.22853 12.8039 5.89559 13.0805C6.56264 13.357 7.27768 13.4994 7.9998 13.4994C8.72193 13.4994 9.43697 13.357 10.104 13.0805C10.7711 12.8039 11.3771 12.3985 11.8873 11.8875L14.0123 9.76874" stroke="white" stroke-width="1.5" stroke-linecap="round" stroke-linejoin="round"/>
</svg>
