<svg width="19" height="18" viewBox="0 0 19 18" fill="none" xmlns="http://www.w3.org/2000/svg">
<path d="M13.4375 6.3V5.90625C13.4375 4.14141 10.7797 2.8125 7.25 2.8125C3.72031 2.8125 1.0625 4.14141 1.0625 5.90625V8.71875C1.0625 10.1883 2.90469 11.3555 5.5625 11.707V12.0938C5.5625 13.8586 8.22031 15.1875 11.75 15.1875C15.2797 15.1875 17.9375 13.8586 17.9375 12.0938V9.28125C17.9375 7.82578 16.1516 6.65859 13.4375 6.3ZM5.5625 10.5609V8.89453C6.1221 8.96645 6.6858 9.00168 7.25 9C7.8142 9.00168 8.3779 8.96645 8.9375 8.89453V10.5609C8.37926 10.6479 7.81497 10.6902 7.25 10.6875C6.68503 10.6902 6.12074 10.6479 5.5625 10.5609ZM12.3125 7.72734V8.71875C12.3125 9.30937 11.4406 9.94219 10.0625 10.3289V8.68359C10.9695 8.46562 11.7359 8.13516 12.3125 7.72734ZM2.1875 8.71875V7.72734C2.76406 8.13516 3.53047 8.46562 4.4375 8.68359V10.3289C3.05937 9.94219 2.1875 9.30937 2.1875 8.71875ZM6.6875 12.0938V11.7984L7.25 11.8125C7.52656 11.8125 7.79375 11.8055 8.05156 11.7914C8.33281 11.8898 8.62813 11.9742 8.9375 12.0516V13.7039C7.55937 13.3172 6.6875 12.6844 6.6875 12.0938ZM10.0625 13.9359V12.2625C10.622 12.3359 11.1857 12.3735 11.75 12.375C12.3142 12.3767 12.8779 12.3414 13.4375 12.2695V13.9359C12.3188 14.1047 11.1812 14.1047 10.0625 13.9359ZM14.5625 13.7039V12.0586C15.4695 11.8406 16.2359 11.5102 16.8125 11.1023V12.0938C16.8125 12.6844 15.9406 13.3172 14.5625 13.7039Z" fill="#58667E"/>
</svg>
