<svg width="16" height="16" viewBox="0 0 16 16" fill="none" xmlns="http://www.w3.org/2000/svg">
<path d="M6.5 5V12.7324C6.5 12.8147 6.47968 12.8958 6.44084 12.9683C6.402 13.0409 6.34584 13.1028 6.27735 13.1484L5.59034 13.6064C5.52367 13.6509 5.4473 13.6787 5.36766 13.6874C5.28801 13.6962 5.20743 13.6857 5.13269 13.6568C5.05796 13.6279 4.99126 13.5815 4.93822 13.5214C4.88518 13.4613 4.84735 13.3894 4.82792 13.3117L4 10" stroke="#58667E" stroke-width="1.5" stroke-linecap="round" stroke-linejoin="round"/>
<path d="M4 9.99991C3.33696 9.99991 2.70107 9.73652 2.23223 9.26767C1.76339 8.79883 1.5 8.16295 1.5 7.49991C1.5 6.83687 1.76339 6.20098 2.23223 5.73214C2.70107 5.2633 3.33696 4.99991 4 4.99991H6.5C6.5 4.99991 9.90323 4.99991 13.1782 2.25318C13.251 2.19188 13.3399 2.15265 13.4342 2.1401C13.5286 2.12756 13.6246 2.14222 13.7109 2.18237C13.7972 2.22251 13.8703 2.28647 13.9215 2.36672C13.9727 2.44698 14 2.54018 14 2.63538V12.3644C14 12.4596 13.9727 12.5528 13.9215 12.6331C13.8703 12.7133 13.7972 12.7773 13.7109 12.8174C13.6246 12.8576 13.5286 12.8723 13.4342 12.8597C13.3399 12.8472 13.251 12.8079 13.1782 12.7466C9.90323 9.99991 6.5 9.99991 6.5 9.99991H4Z" stroke="#58667E" stroke-width="1.5" stroke-linecap="round" stroke-linejoin="round"/>
</svg>
