<svg width="154" height="32" viewBox="0 0 154 32" fill="none" xmlns="http://www.w3.org/2000/svg">
<path d="M56.9921 24.3249H53.4106V8.84438H56.9921V24.3249ZM57.3769 4.31566C57.3769 4.98658 57.1599 5.51937 56.7257 5.91403C56.2916 6.30869 55.7786 6.50602 55.1866 6.50602C54.5749 6.50602 54.0519 6.30869 53.6178 5.91403C53.1837 5.51937 52.9666 4.98658 52.9666 4.31566C52.9666 3.62501 53.1837 3.08235 53.6178 2.68769C54.0519 2.29303 54.5749 2.0957 55.1866 2.0957C55.7786 2.0957 56.2916 2.29303 56.7257 2.68769C57.1599 3.08235 57.3769 3.62501 57.3769 4.31566Z" fill="#1750B1"/>
<path d="M61.5613 9.34757C62.252 9.15024 63.1498 8.96277 64.2549 8.78518C65.3599 8.60758 66.5834 8.51878 67.9252 8.51878C69.1881 8.51878 70.2438 8.69638 71.0923 9.05157C71.9409 9.38703 72.6118 9.87049 73.1051 10.5019C73.6182 11.1137 73.9734 11.8635 74.1707 12.7515C74.3877 13.6198 74.4963 14.5768 74.4963 15.6227V24.3249H70.9147V16.185C70.9147 15.3563 70.8555 14.6557 70.7371 14.0835C70.6385 13.4915 70.4609 13.0179 70.2044 12.6627C69.9676 12.2878 69.6321 12.0214 69.198 11.8635C68.7836 11.6859 68.2705 11.5971 67.6588 11.5971C67.2049 11.5971 66.7314 11.6267 66.238 11.6859C65.7447 11.7451 65.3796 11.7945 65.1429 11.8339V24.3249H61.5613V9.34757Z" fill="#1750B1"/>
<path d="M78.6982 4.75965L82.2798 4.16766V8.84438H87.7853V11.8339H82.2798V18.1386C82.2798 19.3818 82.4771 20.2698 82.8718 20.8026C83.2664 21.3353 83.9373 21.6017 84.8845 21.6017C85.5357 21.6017 86.108 21.5327 86.6013 21.3945C87.1143 21.2564 87.5189 21.1281 87.8149 21.0097L88.4069 23.8513C87.9925 24.0289 87.4498 24.2065 86.7789 24.3841C86.108 24.5814 85.3186 24.6801 84.4109 24.6801C83.3059 24.6801 82.3784 24.5321 81.6286 24.2361C80.8985 23.9401 80.3163 23.5158 79.8822 22.9633C79.4481 22.3911 79.1422 21.7103 78.9646 20.9209C78.787 20.1119 78.6982 19.1943 78.6982 18.1682V4.75965Z" fill="#1750B1"/>
<path d="M90.1289 16.6586C90.1289 15.2971 90.3263 14.1032 90.7209 13.0771C91.1353 12.051 91.678 11.2025 92.3489 10.5315C93.0198 9.84089 93.7894 9.32783 94.6577 8.99237C95.5259 8.63718 96.4139 8.45958 97.3216 8.45958C99.4528 8.45958 101.11 9.12064 102.294 10.4427C103.498 11.7649 104.1 13.7382 104.1 16.3626C104.1 16.56 104.09 16.7869 104.07 17.0434C104.07 17.2802 104.06 17.4973 104.041 17.6946H93.8289C93.9275 18.9378 94.3617 19.9047 95.1312 20.5954C95.9206 21.2663 97.0552 21.6017 98.5352 21.6017C99.4034 21.6017 100.193 21.5228 100.903 21.3649C101.633 21.2071 102.206 21.0393 102.62 20.8617L103.094 23.7921C102.896 23.8908 102.62 23.9993 102.265 24.1177C101.929 24.2164 101.535 24.3052 101.081 24.3841C100.647 24.4827 100.173 24.5617 99.66 24.6209C99.1469 24.6801 98.624 24.7097 98.0912 24.7097C96.7296 24.7097 95.5456 24.5123 94.5393 24.1177C93.5329 23.7033 92.7041 23.1409 92.0529 22.4305C91.4017 21.7004 90.9183 20.8519 90.6025 19.885C90.2868 18.8983 90.1289 17.8229 90.1289 16.6586ZM100.518 15.0603C100.518 14.5669 100.449 14.1032 100.311 13.6691C100.173 13.2152 99.9658 12.8304 99.6896 12.5147C99.433 12.1792 99.1074 11.9227 98.7128 11.7451C98.3379 11.5478 97.884 11.4491 97.3512 11.4491C96.7987 11.4491 96.3152 11.5577 95.9008 11.7747C95.4864 11.9721 95.1313 12.2384 94.8353 12.5739C94.559 12.9094 94.3419 13.2942 94.1841 13.7283C94.0262 14.1624 93.9177 14.6064 93.8585 15.0603H100.518Z" fill="#1750B1"/>
<path d="M110.709 16.185C110.709 17.7045 111.035 18.8194 111.686 19.5298C112.357 20.2204 113.215 20.5658 114.261 20.5658C114.833 20.5658 115.366 20.4868 115.859 20.329C116.372 20.1711 116.787 19.9836 117.103 19.7666V11.7451C116.846 11.6859 116.53 11.6366 116.155 11.5971C115.78 11.5379 115.307 11.5083 114.735 11.5083C113.432 11.5083 112.436 11.9425 111.745 12.8107C111.054 13.6592 110.709 14.784 110.709 16.185ZM120.684 22.7561C120.684 25.2227 120.053 27.0283 118.79 28.1728C117.547 29.3173 115.632 29.8896 113.047 29.8896C112.1 29.8896 111.173 29.8106 110.265 29.6528C109.377 29.4949 108.568 29.2877 107.838 29.0312L108.489 25.9825C109.101 26.239 109.792 26.4462 110.561 26.604C111.35 26.7619 112.199 26.8408 113.107 26.8408C114.547 26.8408 115.573 26.5448 116.185 25.9529C116.797 25.3609 117.103 24.4827 117.103 23.3185V22.7265C116.747 22.9041 116.274 23.0817 115.682 23.2593C115.11 23.4369 114.449 23.5257 113.699 23.5257C112.712 23.5257 111.804 23.3678 110.976 23.0521C110.166 22.7364 109.466 22.2727 108.874 21.6609C108.302 21.0492 107.848 20.2895 107.512 19.3818C107.197 18.4543 107.039 17.3887 107.039 16.185C107.039 15.0603 107.207 14.0243 107.542 13.0771C107.897 12.1299 108.4 11.3209 109.052 10.6499C109.722 9.97902 110.532 9.4561 111.479 9.08117C112.426 8.70625 113.501 8.51878 114.705 8.51878C115.869 8.51878 116.974 8.60758 118.02 8.78518C119.066 8.96277 119.954 9.15024 120.684 9.34757V22.7561Z" fill="#1750B1"/>
<path d="M134.061 12.0707C133.765 11.9721 133.351 11.8734 132.818 11.7747C132.305 11.6563 131.703 11.5971 131.012 11.5971C130.618 11.5971 130.194 11.6366 129.74 11.7155C129.306 11.7945 129 11.8635 128.822 11.9227V24.3249H125.241V9.58436C125.931 9.32783 126.79 9.09104 127.816 8.87398C128.862 8.63718 130.016 8.51878 131.279 8.51878C131.516 8.51878 131.792 8.53852 132.108 8.57798C132.423 8.59771 132.739 8.63718 133.055 8.69638C133.371 8.73585 133.676 8.79504 133.972 8.87398C134.268 8.93317 134.505 8.99237 134.683 9.05157L134.061 12.0707Z" fill="#1750B1"/>
<path d="M142.625 21.8089C143.73 21.8089 144.569 21.7497 145.141 21.6313V17.665C144.944 17.6058 144.657 17.5466 144.283 17.4874C143.908 17.4282 143.493 17.3986 143.039 17.3986C142.645 17.3986 142.24 17.4282 141.826 17.4874C141.431 17.5466 141.066 17.6551 140.731 17.813C140.415 17.9709 140.158 18.1978 139.961 18.4938C139.764 18.7701 139.665 19.1252 139.665 19.5594C139.665 20.4079 139.931 20.9999 140.464 21.3353C140.997 21.6511 141.717 21.8089 142.625 21.8089ZM142.329 8.45958C143.513 8.45958 144.509 8.60758 145.318 8.90358C146.128 9.19957 146.769 9.61396 147.242 10.1468C147.736 10.6795 148.081 11.3307 148.278 12.1003C148.495 12.8502 148.604 13.679 148.604 14.5867V23.9697C148.052 24.0881 147.213 24.2262 146.088 24.3841C144.983 24.5617 143.73 24.6505 142.329 24.6505C141.402 24.6505 140.553 24.5617 139.783 24.3841C139.014 24.2065 138.353 23.9204 137.8 23.5257C137.267 23.131 136.843 22.618 136.527 21.9865C136.231 21.3551 136.083 20.5756 136.083 19.6482C136.083 18.7602 136.251 18.0103 136.587 17.3986C136.942 16.7869 137.415 16.2936 138.007 15.9186C138.599 15.524 139.28 15.2477 140.05 15.0899C140.839 14.9123 141.658 14.8235 142.507 14.8235C142.901 14.8235 143.316 14.8531 143.75 14.9123C144.184 14.9517 144.648 15.0307 145.141 15.1491V14.5571C145.141 14.1427 145.092 13.748 144.993 13.3731C144.894 12.9982 144.717 12.6726 144.46 12.3963C144.223 12.1003 143.898 11.8734 143.483 11.7155C143.089 11.5577 142.585 11.4787 141.974 11.4787C141.145 11.4787 140.385 11.5379 139.695 11.6563C139.004 11.7747 138.442 11.9129 138.007 12.0707L137.563 9.16997C138.017 9.01211 138.678 8.85424 139.547 8.69638C140.415 8.53852 141.342 8.45958 142.329 8.45958Z" fill="#1750B1"/>
<g clip-path="url(#clip0_91_36076)">
<path d="M33.9102 28.9498H25.3415C25.125 28.9498 24.9142 28.8792 24.7387 28.7497L16.9192 22.9164C16.4685 22.5809 15.8364 22.6751 15.5028 23.1283L11.5111 28.5378C11.3179 28.7968 11.0194 28.9498 10.6975 28.9498H4.32958C3.49846 28.9498 3.01853 27.9962 3.51602 27.3193L10.3756 18.0308L14.022 13.0805C14.3556 12.6272 14.9936 12.5331 15.4442 12.8686L20.3665 16.5416L34.5247 27.1074C35.309 27.696 34.8993 28.9498 33.9219 28.9498H33.9102Z" fill="#1750B1"/>
<path d="M13.1089 3.05029H21.6775C21.8941 3.05029 22.1048 3.12093 22.2804 3.25043L30.0998 9.0837C30.5505 9.41922 31.1826 9.32504 31.5162 8.8718L35.5079 3.46233C35.7011 3.20334 36.0054 3.05029 36.3273 3.05029H42.6894C43.5205 3.05029 44.0005 4.00387 43.503 4.68079L36.6434 13.9693L32.997 18.9196C32.6634 19.3729 32.0254 19.4671 31.5748 19.1315L26.6525 15.4585L12.5001 4.89269C11.7159 4.30406 12.1314 3.05029 13.1089 3.05029Z" fill="#1750B1"/>
</g>
<defs>
<clipPath id="clip0_91_36076">
<rect width="40.3909" height="25.8995" fill="white" transform="translate(3.3111 3.05029)"/>
</clipPath>
</defs>
</svg>
